<?xml version="1.0" encoding="utf-8"?>
<!-- Generator: Adobe Illustrator 18.1.0, SVG Export Plug-In . SVG Version: 6.00 Build 0)  -->
<!DOCTYPE svg PUBLIC "-//W3C//DTD SVG 1.1//EN" "http://www.w3.org/Graphics/SVG/1.1/DTD/svg11.dtd">
<svg version="1.1" id="Layer_1" xmlns="http://www.w3.org/2000/svg" xmlns:xlink="http://www.w3.org/1999/xlink" x="0px" y="0px"
	 width="229.4px" height="67.6px" viewBox="0 0 229.4 67.6" enable-background="new 0 0 229.4 67.6" xml:space="preserve">
<g>
	<g>
		<path fill="#729BAB" d="M44.2,28.7c-0.4-7-0.8-15.5-0.7-21.7h-0.2c-1.7,5.9-3.8,12.2-6.3,19.1L28,50.5H23l-8.1-24
			C12.5,19.5,10.5,13,9.1,7H8.9c-0.1,6.3-0.5,14.7-1,22.2L6.6,50.8H0.4L3.9,0.5h8.3l8.6,24.3c2.1,6.2,3.8,11.7,5.1,16.9h0.2
			c1.3-5.1,3.1-10.6,5.3-16.9l9-24.3h8.3l3.1,50.3h-6.3L44.2,28.7z"/>
		<path fill="#729BAB" d="M62.2,14.7l7.9,21.4c0.8,2.4,1.7,5.2,2.3,7.4h0.1c0.7-2.2,1.4-4.9,2.3-7.5l7.2-21.2H89l-9.9,25.8
			c-4.7,12.4-7.9,18.7-12.4,22.6c-3.2,2.8-6.4,4-8.1,4.3l-1.6-5.5c1.6-0.5,3.8-1.6,5.7-3.2c1.8-1.4,4-4,5.5-7.3
			c0.3-0.7,0.5-1.2,0.5-1.6c0-0.4-0.1-0.9-0.4-1.7L55.1,14.7H62.2z"/>
		<path fill="#041E41" d="M146.6,25.2c0,17.3-10.5,26.5-23.4,26.5c-13.3,0-22.6-10.3-22.6-25.5c0-16,9.9-26.4,23.4-26.4
			C137.7-0.3,146.6,10.2,146.6,25.2z M107.5,26c0,10.8,5.8,20.4,16.1,20.4c10.3,0,16.1-9.5,16.1-20.9c0-10-5.2-20.5-16.1-20.5
			C112.9,5,107.5,14.9,107.5,26z"/>
		<path fill="#041E41" d="M152.8,1.2c3.3-0.7,8-1,12.5-1c6.9,0,11.4,1.3,14.6,4.1c2.5,2.2,4,5.7,4,9.6c0,6.6-4.2,11.1-9.5,12.8v0.2
			c3.9,1.3,6.2,4.9,7.4,10.2c1.6,7,2.8,11.9,3.9,13.8h-6.7c-0.8-1.4-1.9-5.7-3.4-12c-1.5-6.9-4.2-9.6-10.1-9.8h-6.1v21.8h-6.5V1.2z
			 M159.3,24.1h6.6c6.9,0,11.3-3.8,11.3-9.6c0-6.5-4.7-9.3-11.6-9.4c-3.1,0-5.4,0.3-6.4,0.6V24.1z"/>
		<path fill="#041E41" d="M199.2,35L194,50.8h-6.7l17.1-50.3h7.8l17.2,50.3h-6.9L217.1,35H199.2z M215.7,29.9l-4.9-14.5
			c-1.1-3.3-1.9-6.3-2.6-9.2H208c-0.7,3-1.6,6-2.5,9.1l-4.9,14.6H215.7z"/>
	</g>
</g>
<g>
</g>
<g>
</g>
<g>
</g>
<g>
</g>
<g>
</g>
<g>
</g>
<g>
</g>
<g>
</g>
<g>
</g>
<g>
</g>
<g>
</g>
<g>
</g>
<g>
</g>
<g>
</g>
<g>
</g>
</svg>
