<?xml version="1.0" encoding="utf-8"?>
<!-- Generator: Adobe Illustrator 18.1.0, SVG Export Plug-In . SVG Version: 6.00 Build 0)  -->
<!DOCTYPE svg PUBLIC "-//W3C//DTD SVG 1.1//EN" "http://www.w3.org/Graphics/SVG/1.1/DTD/svg11.dtd">
<svg version="1.1" id="Layer_1" xmlns="http://www.w3.org/2000/svg" xmlns:xlink="http://www.w3.org/1999/xlink" x="0px" y="0px"
	 width="220.6px" height="81.5px" viewBox="0 0 220.6 81.5" enable-background="new 0 0 220.6 81.5" xml:space="preserve">
<g>
	<g>
		<path fill="#729BAB" d="M29.4,63.9L7.8,14.5v49.4H5.2V10.8h3.7l21.8,49.4l21.8-49.4h3.7v53.1h-2.6V14.5L32,63.9H29.4z"/>
		<path fill="#729BAB" d="M61.1,23.8l14,36.5l14.6-36.5h3.1L71.1,76.9h-2.8l5.3-13.2L58.4,23.8H61.1z"/>
		<path fill="#041E41" d="M115.7,17.4c5.2-5.1,11.4-7.7,18.7-7.7c7.5,0,13.8,2.6,19,7.8c5.4,5.3,8.1,11.9,8.1,19.5
			c0,7.5-2.3,13.8-7,19c-5.4,5.9-12.2,9-20.2,9c-15.2,0-27-12.1-27-27.9C107.4,29.6,110.3,22.7,115.7,17.4z M117.1,55.1
			c4.6,4.9,11.1,7.5,17.3,7.5c14,0,24.6-11.2,24.6-25.8c0-5.4-1.8-10.5-5.2-14.9c-5-6.6-11.5-9.9-19.4-9.9c-6.3,0-12.3,2.5-16.8,7.1
			c-4.7,4.9-7.4,11.5-7.4,17.9C110.2,44.1,112.7,50.6,117.1,55.1z"/>
		<path fill="#041E41" d="M166,23.8h2.6v4.6c2.5-3.4,5.1-5.1,9-5.2v3c-7,0.6-9,4.2-9,10.9v26.8H166V23.8z"/>
		<path fill="#041E41" d="M216.2,23.8h2.4v40.1h-2.4v-9.6c-4.9,7.2-10.5,10.6-18,10.6c-11.8,0-20.6-9.6-20.6-21.3
			c0-11.4,8.5-20.9,20.6-20.9c7.8,0,13.9,3.7,18,10.9V23.8z M198.1,24.7c-9.9,0-17.9,8.2-17.9,19.1c0,11,8.7,19,18.3,19
			c9.1,0,17.7-8.4,17.7-18.7C216.1,33.4,208.3,24.7,198.1,24.7z"/>
	</g>
</g>
<g>
</g>
<g>
</g>
<g>
</g>
<g>
</g>
<g>
</g>
<g>
</g>
<g>
</g>
<g>
</g>
<g>
</g>
<g>
</g>
<g>
</g>
<g>
</g>
<g>
</g>
<g>
</g>
<g>
</g>
</svg>
