<?xml version="1.0" encoding="utf-8"?>
<!-- Generator: Adobe Illustrator 18.1.0, SVG Export Plug-In . SVG Version: 6.00 Build 0)  -->
<svg version="1.1" id="Layer_1" xmlns="http://www.w3.org/2000/svg" xmlns:xlink="http://www.w3.org/1999/xlink" x="0px" y="0px"
	 width="199.9px" height="67.6px" viewBox="0 0 199.9 67.6" enable-background="new 0 0 199.9 67.6" xml:space="preserve">
<g>
	<g>
		<path fill="#729BAB" d="M43.8,29c-0.4-7-0.8-15.5-0.7-21.7h-0.2c-1.7,5.9-3.8,12.2-6.3,19.1l-8.9,24.4h-4.9l-8.1-24
			c-2.4-7.1-4.4-13.6-5.8-19.6H8.5C8.4,13.6,8,22,7.5,29.6L6.2,51.1H0L3.5,0.8h8.3l8.6,24.3c2.1,6.2,3.8,11.7,5.1,16.9h0.2
			C27,37,28.7,31.5,31,25.2l9-24.3h8.3l3.1,50.3H45L43.8,29z"/>
		<path fill="#729BAB" d="M61.8,15l7.9,21.4c0.8,2.4,1.7,5.2,2.3,7.4h0.1c0.7-2.2,1.4-4.9,2.3-7.5L81.7,15h6.9l-9.9,25.8
			c-4.7,12.4-7.9,18.7-12.4,22.6c-3.2,2.8-6.4,4-8.1,4.3l-1.6-5.5c1.6-0.5,3.8-1.6,5.7-3.2c1.8-1.4,4-4,5.5-7.3
			c0.3-0.7,0.5-1.2,0.5-1.6c0-0.4-0.1-0.9-0.4-1.7L54.6,15H61.8z"/>
		<path fill="#041E41" d="M146.2,25.5c0,17.3-10.5,26.5-23.4,26.5c-13.3,0-22.6-10.3-22.6-25.5c0-16,9.9-26.4,23.4-26.4
			C137.3,0,146.2,10.5,146.2,25.5z M107.1,26.3c0,10.8,5.8,20.4,16.1,20.4c10.3,0,16.1-9.5,16.1-20.9c0-10-5.2-20.5-16.1-20.5
			C112.5,5.3,107.1,15.2,107.1,26.3z"/>
		<path fill="#041E41" d="M152.2,26.3c0-4.3-0.1-7.9-0.3-11.3h5.7l0.2,7.1h0.3c1.6-4.9,5.6-7.9,10-7.9c0.7,0,1.3,0.1,1.9,0.2v6.2
			c-0.7-0.1-1.3-0.2-2.2-0.2c-4.6,0-7.9,3.5-8.8,8.4c-0.1,0.9-0.3,1.9-0.3,3.1v19.3h-6.5V26.3z"/>
		<path fill="#041E41" d="M194,51.1l-0.5-4.6h-0.2c-2,2.8-5.9,5.4-11,5.4c-7.3,0-11-5.2-11-10.4c0-8.7,7.8-13.5,21.7-13.4v-0.7
			c0-3-0.8-8.4-8.2-8.4c-3.4,0-6.9,1-9.4,2.7l-1.5-4.3c3-1.9,7.3-3.2,11.9-3.2c11,0,13.7,7.5,13.7,14.8v13.5c0,3.1,0.1,6.2,0.6,8.7
			H194z M193,32.7c-7.2-0.1-15.3,1.1-15.3,8.1c0,4.3,2.8,6.3,6.2,6.3c4.7,0,7.7-3,8.7-6c0.2-0.7,0.4-1.4,0.4-2.1V32.7z"/>
	</g>
</g>
</svg>
