<?xml version="1.0" encoding="utf-8"?>
<!-- Generator: Adobe Illustrator 18.1.0, SVG Export Plug-In . SVG Version: 6.00 Build 0)  -->
<svg version="1.1" id="Layer_1" xmlns="http://www.w3.org/2000/svg" xmlns:xlink="http://www.w3.org/1999/xlink" x="0px" y="0px"
	 width="105px" height="63.8px" viewBox="0 0 105 63.8" enable-background="new 0 0 105 63.8" xml:space="preserve">
<g>
	<path fill="#FFFFFF" d="M20.1,40.1C8.7,40.1,0,31.5,0,20C0,8.7,8.7,0,20.1,0s20.1,8.7,20.1,20C40.2,31.5,31.6,40.1,20.1,40.1z
		 M20.1,1.9C9.8,1.9,2,9.7,2,20c0,10.4,7.8,18.2,18.1,18.2S38.2,30.4,38.2,20C38.2,9.7,30.4,1.9,20.1,1.9z"/>
	<path fill="#FFFFFF" d="M55.3,4.6c-4.5,4.1-5.1,8.6-5.1,13.8v20.7h-2V0.9h2v6.9h0.1c3.5-7.2,10-7.6,13.3-7.9v1.9
		C61.4,2,58.8,2.2,55.3,4.6z"/>
	<path fill="#FFFFFF" d="M102,39.1v-9.5h-0.1c-3.3,6.5-9.7,10.5-17.7,10.5C71.6,40.1,64,30.4,64,20C64,9.5,71.8,0,84.1,0
		c9.2,0,15.9,5.7,17.7,10.7h0.1V0.9h2v38.2H102z M84.1,1.9C74.2,1.9,66,9.3,66,20c0,8.7,6,18.2,18.3,18.2c10.5,0,17.9-8.3,17.9-18.2
		C102.2,9.6,94.4,1.9,84.1,1.9z"/>
</g>
<g>
	<path fill="#FFFFFF" d="M1.2,50.5c0-0.4,0.1-0.9,0.2-1.3c0.1-0.4,0.3-0.8,0.6-1.1c0.3-0.3,0.6-0.6,0.9-0.7c0.4-0.2,0.8-0.3,1.3-0.3
		c0.5,0,0.9,0.1,1.3,0.3c0.4,0.2,0.7,0.4,0.9,0.7c0.3,0.3,0.4,0.7,0.6,1.1c0.1,0.4,0.2,0.8,0.2,1.3S7.2,51.3,7,51.7
		c-0.1,0.4-0.3,0.8-0.6,1.1c-0.3,0.3-0.6,0.6-0.9,0.7c-0.4,0.2-0.8,0.3-1.3,0.3c-0.5,0-0.9-0.1-1.3-0.3c-0.4-0.2-0.7-0.4-0.9-0.7
		c-0.3-0.3-0.4-0.7-0.6-1.1C1.2,51.3,1.2,50.9,1.2,50.5z M1.8,50.5c0,0.3,0,0.7,0.1,1c0.1,0.3,0.2,0.6,0.4,0.9
		c0.2,0.3,0.4,0.5,0.8,0.6c0.3,0.2,0.7,0.2,1.1,0.2c0.4,0,0.8-0.1,1.1-0.2c0.3-0.2,0.6-0.4,0.7-0.6c0.2-0.3,0.3-0.6,0.4-0.9
		c0.1-0.3,0.1-0.7,0.1-1c0-0.4,0-0.7-0.1-1c-0.1-0.3-0.2-0.6-0.4-0.9c-0.2-0.3-0.4-0.5-0.7-0.6c-0.3-0.2-0.7-0.2-1.1-0.2
		c-0.4,0-0.8,0.1-1.1,0.2s-0.6,0.4-0.8,0.6c-0.2,0.3-0.3,0.6-0.4,0.9C1.8,49.8,1.8,50.1,1.8,50.5z"/>
	<path fill="#FFFFFF" d="M8.1,47.3h0.7l1.8,2.7l1.9-2.7h0.7L11,50.4l2.3,3.3h-0.7l-2-2.8l-2,2.8H8l2.3-3.3L8.1,47.3z"/>
	<path fill="#FFFFFF" d="M14.4,47.3h4.1v0.5H15v2.3h3.1v0.5H15v3.1h-0.6V47.3z"/>
	<path fill="#FFFFFF" d="M19.4,50.5c0-0.4,0.1-0.9,0.2-1.3c0.1-0.4,0.3-0.8,0.6-1.1c0.3-0.3,0.6-0.6,0.9-0.7
		c0.4-0.2,0.8-0.3,1.3-0.3c0.5,0,0.9,0.1,1.3,0.3c0.4,0.2,0.7,0.4,0.9,0.7c0.3,0.3,0.4,0.7,0.6,1.1c0.1,0.4,0.2,0.8,0.2,1.3
		s-0.1,0.9-0.2,1.3c-0.1,0.4-0.3,0.8-0.6,1.1c-0.3,0.3-0.6,0.6-0.9,0.7c-0.4,0.2-0.8,0.3-1.3,0.3c-0.5,0-0.9-0.1-1.3-0.3
		c-0.4-0.2-0.7-0.4-0.9-0.7c-0.3-0.3-0.4-0.7-0.6-1.1C19.5,51.3,19.4,50.9,19.4,50.5z M20.1,50.5c0,0.3,0,0.7,0.1,1
		c0.1,0.3,0.2,0.6,0.4,0.9c0.2,0.3,0.4,0.5,0.8,0.6c0.3,0.2,0.7,0.2,1.1,0.2c0.4,0,0.8-0.1,1.1-0.2c0.3-0.2,0.6-0.4,0.7-0.6
		c0.2-0.3,0.3-0.6,0.4-0.9c0.1-0.3,0.1-0.7,0.1-1c0-0.4,0-0.7-0.1-1c-0.1-0.3-0.2-0.6-0.4-0.9c-0.2-0.3-0.4-0.5-0.7-0.6
		c-0.3-0.2-0.7-0.2-1.1-0.2c-0.4,0-0.8,0.1-1.1,0.2s-0.6,0.4-0.8,0.6c-0.2,0.3-0.3,0.6-0.4,0.9C20.1,49.8,20.1,50.1,20.1,50.5z"/>
	<path fill="#FFFFFF" d="M27,47.3h2.9c0.3,0,0.5,0,0.8,0.1c0.2,0.1,0.4,0.2,0.6,0.3c0.2,0.1,0.3,0.3,0.4,0.5
		c0.1,0.2,0.2,0.5,0.2,0.8c0,0.4-0.1,0.8-0.3,1.1c-0.2,0.3-0.5,0.5-0.9,0.6v0c0.2,0,0.4,0.1,0.5,0.2c0.1,0.1,0.3,0.2,0.3,0.3
		c0.1,0.1,0.2,0.3,0.2,0.4c0,0.2,0.1,0.3,0.1,0.5c0,0.1,0,0.2,0,0.4c0,0.2,0,0.3,0,0.5c0,0.2,0,0.3,0.1,0.5c0,0.1,0.1,0.3,0.2,0.3
		h-0.7c0-0.1-0.1-0.1-0.1-0.2s0-0.2,0-0.3c0-0.1,0-0.2,0-0.3s0-0.2,0-0.2c0-0.2,0-0.5-0.1-0.7c0-0.2-0.1-0.4-0.2-0.6
		c-0.1-0.2-0.2-0.3-0.4-0.4s-0.4-0.2-0.7-0.1h-2.3v2.9H27V47.3z M27.6,50.3h2.3c0.2,0,0.4,0,0.5-0.1c0.2-0.1,0.3-0.1,0.4-0.2
		c0.1-0.1,0.2-0.2,0.3-0.4c0.1-0.2,0.1-0.3,0.1-0.5c0-0.4-0.1-0.7-0.3-0.9s-0.6-0.3-1-0.3h-2.3V50.3z"/>
	<path fill="#FFFFFF" d="M33.5,47.3h2.2c1,0,1.7,0.3,2.2,0.8c0.5,0.5,0.7,1.3,0.7,2.4s-0.2,1.9-0.7,2.4s-1.2,0.8-2.2,0.8h-2.2V47.3z
		 M34.1,53.2h1.3c0.5,0,0.9-0.1,1.2-0.1c0.3-0.1,0.6-0.3,0.8-0.5c0.2-0.2,0.4-0.5,0.5-0.8s0.2-0.8,0.2-1.2c0-0.5-0.1-0.9-0.2-1.2
		s-0.3-0.6-0.5-0.8c-0.2-0.2-0.5-0.4-0.8-0.5c-0.3-0.1-0.7-0.1-1.2-0.1h-1.3V53.2z"/>
	<path fill="#FFFFFF" d="M43.3,50.5c0-0.2,0-0.4,0.1-0.6s0.2-0.4,0.3-0.5c0.1-0.1,0.3-0.3,0.5-0.3s0.4-0.1,0.6-0.1
		c0.2,0,0.4,0,0.6,0.1c0.2,0.1,0.4,0.2,0.5,0.3c0.1,0.1,0.3,0.3,0.3,0.5c0.1,0.2,0.1,0.4,0.1,0.6s0,0.4-0.1,0.6
		c-0.1,0.2-0.2,0.4-0.3,0.5s-0.3,0.3-0.5,0.3c-0.2,0.1-0.4,0.1-0.6,0.1c-0.2,0-0.4,0-0.6-0.1s-0.4-0.2-0.5-0.3s-0.3-0.3-0.3-0.5
		S43.3,50.7,43.3,50.5z"/>
	<path fill="#FFFFFF" d="M51.3,47.3h0.6v4c0,0.4,0,0.7,0.1,1s0.2,0.5,0.4,0.6c0.2,0.2,0.4,0.3,0.6,0.4c0.2,0.1,0.5,0.1,0.8,0.1
		c0.3,0,0.6,0,0.8-0.1c0.2-0.1,0.4-0.2,0.6-0.4c0.2-0.2,0.3-0.4,0.4-0.6s0.1-0.6,0.1-1v-4h0.6v4.1c0,0.3,0,0.6-0.1,0.9
		c-0.1,0.3-0.2,0.6-0.4,0.8c-0.2,0.2-0.5,0.4-0.8,0.5c-0.3,0.1-0.7,0.2-1.1,0.2c-0.4,0-0.8-0.1-1.1-0.2c-0.3-0.1-0.6-0.3-0.8-0.5
		c-0.2-0.2-0.3-0.5-0.4-0.8c-0.1-0.3-0.1-0.6-0.1-0.9V47.3z"/>
	<path fill="#FFFFFF" d="M58.1,47.3h0.7l3.7,5.4h0v-5.4h0.6v6.4h-0.7l-3.7-5.4h0v5.4h-0.6V47.3z"/>
	<path fill="#FFFFFF" d="M65,47.3h0.6v6.4H65V47.3z"/>
	<path fill="#FFFFFF" d="M66.8,47.3h0.6l2.1,5.8h0l2.1-5.8h0.6l-2.4,6.4h-0.7L66.8,47.3z"/>
	<path fill="#FFFFFF" d="M73.4,47.3h4.4v0.5H74v2.3h3.6v0.5H74v2.5h3.9v0.5h-4.5V47.3z"/>
	<path fill="#FFFFFF" d="M79.2,47.3h2.9c0.3,0,0.5,0,0.8,0.1c0.2,0.1,0.4,0.2,0.6,0.3s0.3,0.3,0.4,0.5c0.1,0.2,0.2,0.5,0.2,0.8
		c0,0.4-0.1,0.8-0.3,1.1c-0.2,0.3-0.5,0.5-0.9,0.6v0c0.2,0,0.4,0.1,0.5,0.2c0.1,0.1,0.3,0.2,0.3,0.3c0.1,0.1,0.2,0.3,0.2,0.4
		c0,0.2,0.1,0.3,0.1,0.5c0,0.1,0,0.2,0,0.4c0,0.2,0,0.3,0,0.5c0,0.2,0,0.3,0.1,0.5c0,0.1,0.1,0.3,0.2,0.3h-0.7
		c0-0.1-0.1-0.1-0.1-0.2s0-0.2,0-0.3c0-0.1,0-0.2,0-0.3s0-0.2,0-0.2c0-0.2,0-0.5-0.1-0.7c0-0.2-0.1-0.4-0.2-0.6
		c-0.1-0.2-0.2-0.3-0.4-0.4s-0.4-0.2-0.7-0.1h-2.3v2.9h-0.6V47.3z M79.9,50.3h2.3c0.2,0,0.4,0,0.5-0.1c0.2-0.1,0.3-0.1,0.4-0.2
		c0.1-0.1,0.2-0.2,0.3-0.4c0.1-0.2,0.1-0.3,0.1-0.5c0-0.4-0.1-0.7-0.3-0.9c-0.2-0.2-0.6-0.3-1-0.3h-2.3V50.3z"/>
	<path fill="#FFFFFF" d="M86.1,51.6c0,0.3,0,0.6,0.2,0.8c0.1,0.2,0.3,0.4,0.4,0.5c0.2,0.1,0.4,0.2,0.7,0.3s0.5,0.1,0.8,0.1
		c0.2,0,0.4,0,0.5-0.1c0.2,0,0.4-0.1,0.6-0.2c0.2-0.1,0.3-0.2,0.4-0.4s0.2-0.4,0.2-0.6c0-0.2,0-0.3-0.1-0.5
		c-0.1-0.1-0.2-0.2-0.3-0.3S89.2,51,89,51c-0.2-0.1-0.3-0.1-0.5-0.1l-1.4-0.4c-0.2,0-0.4-0.1-0.5-0.2c-0.2-0.1-0.3-0.2-0.5-0.3
		c-0.1-0.1-0.2-0.3-0.3-0.4c-0.1-0.2-0.1-0.4-0.1-0.6c0-0.2,0-0.3,0.1-0.5c0.1-0.2,0.2-0.4,0.3-0.6c0.2-0.2,0.4-0.3,0.7-0.5
		s0.7-0.2,1.1-0.2c0.3,0,0.6,0,0.9,0.1s0.5,0.2,0.8,0.4c0.2,0.2,0.4,0.4,0.5,0.6c0.1,0.3,0.2,0.5,0.2,0.9h-0.6
		c0-0.2-0.1-0.5-0.2-0.6s-0.2-0.3-0.4-0.5c-0.2-0.1-0.3-0.2-0.5-0.3s-0.4-0.1-0.7-0.1c-0.2,0-0.4,0-0.6,0.1s-0.4,0.1-0.5,0.2
		c-0.1,0.1-0.3,0.2-0.4,0.4s-0.1,0.4-0.1,0.6c0,0.1,0,0.3,0.1,0.4s0.1,0.2,0.2,0.3c0.1,0.1,0.2,0.1,0.3,0.2c0.1,0,0.2,0.1,0.4,0.1
		l1.6,0.4c0.2,0.1,0.4,0.1,0.6,0.2c0.2,0.1,0.4,0.2,0.5,0.3c0.2,0.1,0.3,0.3,0.4,0.5c0.1,0.2,0.1,0.4,0.1,0.7c0,0.1,0,0.2,0,0.3
		c0,0.1-0.1,0.2-0.1,0.4c-0.1,0.1-0.1,0.3-0.2,0.4c-0.1,0.1-0.2,0.3-0.4,0.4c-0.2,0.1-0.4,0.2-0.7,0.3s-0.6,0.1-1,0.1
		c-0.4,0-0.7,0-1.1-0.1c-0.3-0.1-0.6-0.2-0.8-0.4c-0.2-0.2-0.4-0.4-0.5-0.7c-0.1-0.3-0.2-0.6-0.2-1H86.1z"/>
	<path fill="#FFFFFF" d="M92,47.3h0.6v6.4H92V47.3z"/>
	<path fill="#FFFFFF" d="M93.8,47.3h5.1v0.5h-2.2v5.9h-0.6v-5.9h-2.2V47.3z"/>
	<path fill="#FFFFFF" d="M101.9,51l-2.5-3.8h0.7l2.1,3.3l2.1-3.3h0.7l-2.5,3.8v2.6h-0.6V51z"/>
	<path fill="#FFFFFF" d="M1.5,57.3h2.9c0.3,0,0.5,0,0.8,0.1c0.2,0.1,0.4,0.2,0.6,0.3C6,57.8,6.1,58,6.2,58.2
		c0.1,0.2,0.2,0.5,0.2,0.8c0,0.4-0.1,0.8-0.3,1.1c-0.2,0.3-0.5,0.5-0.9,0.6v0c0.2,0,0.4,0.1,0.5,0.2c0.1,0.1,0.3,0.2,0.3,0.3
		c0.1,0.1,0.2,0.3,0.2,0.4c0,0.2,0.1,0.3,0.1,0.5c0,0.1,0,0.2,0,0.4c0,0.2,0,0.3,0,0.5c0,0.2,0,0.3,0.1,0.5c0,0.1,0.1,0.3,0.2,0.3
		H5.9c0-0.1-0.1-0.1-0.1-0.2s0-0.2,0-0.3c0-0.1,0-0.2,0-0.3s0-0.2,0-0.2c0-0.2,0-0.5-0.1-0.7c0-0.2-0.1-0.4-0.2-0.6
		c-0.1-0.2-0.2-0.3-0.4-0.4s-0.4-0.2-0.7-0.1H2.1v2.9H1.5V57.3z M2.1,60.3h2.3c0.2,0,0.4,0,0.5-0.1c0.2-0.1,0.3-0.1,0.4-0.2
		c0.1-0.1,0.2-0.2,0.3-0.4c0.1-0.2,0.1-0.3,0.1-0.5c0-0.4-0.1-0.7-0.3-0.9s-0.6-0.3-1-0.3H2.1V60.3z"/>
	<path fill="#FFFFFF" d="M8,57.3h4.4v0.5H8.7v2.3h3.6v0.5H8.7v2.5h3.9v0.5H8V57.3z"/>
	<path fill="#FFFFFF" d="M14.2,61.6c0,0.3,0,0.6,0.2,0.8c0.1,0.2,0.3,0.4,0.4,0.5c0.2,0.1,0.4,0.2,0.7,0.3c0.3,0.1,0.5,0.1,0.8,0.1
		c0.2,0,0.4,0,0.5-0.1c0.2,0,0.4-0.1,0.6-0.2c0.2-0.1,0.3-0.2,0.4-0.4c0.1-0.2,0.2-0.4,0.2-0.6c0-0.2,0-0.3-0.1-0.5
		c-0.1-0.1-0.2-0.2-0.3-0.3S17.3,61,17.1,61c-0.2-0.1-0.3-0.1-0.5-0.1l-1.4-0.4c-0.2,0-0.4-0.1-0.5-0.2c-0.2-0.1-0.3-0.2-0.5-0.3
		c-0.1-0.1-0.2-0.3-0.3-0.4c-0.1-0.2-0.1-0.4-0.1-0.6c0-0.2,0-0.3,0.1-0.5c0.1-0.2,0.2-0.4,0.3-0.6c0.2-0.2,0.4-0.3,0.7-0.5
		s0.7-0.2,1.1-0.2c0.3,0,0.6,0,0.9,0.1s0.5,0.2,0.8,0.4c0.2,0.2,0.4,0.4,0.5,0.6c0.1,0.3,0.2,0.5,0.2,0.9h-0.6
		c0-0.2-0.1-0.5-0.2-0.6s-0.2-0.3-0.4-0.5c-0.2-0.1-0.3-0.2-0.5-0.3s-0.4-0.1-0.7-0.1c-0.2,0-0.4,0-0.6,0.1c-0.2,0-0.4,0.1-0.5,0.2
		c-0.1,0.1-0.3,0.2-0.4,0.4s-0.1,0.4-0.1,0.6c0,0.1,0,0.3,0.1,0.4c0.1,0.1,0.1,0.2,0.2,0.3c0.1,0.1,0.2,0.1,0.3,0.2
		c0.1,0,0.2,0.1,0.4,0.1l1.6,0.4c0.2,0.1,0.4,0.1,0.6,0.2c0.2,0.1,0.4,0.2,0.5,0.3s0.3,0.3,0.4,0.5c0.1,0.2,0.1,0.4,0.1,0.7
		c0,0.1,0,0.2,0,0.3c0,0.1-0.1,0.2-0.1,0.4c-0.1,0.1-0.1,0.3-0.2,0.4s-0.2,0.3-0.4,0.4c-0.2,0.1-0.4,0.2-0.7,0.3s-0.6,0.1-1,0.1
		c-0.4,0-0.7,0-1.1-0.1c-0.3-0.1-0.6-0.2-0.8-0.4c-0.2-0.2-0.4-0.4-0.5-0.7c-0.1-0.3-0.2-0.6-0.2-1H14.2z"/>
	<path fill="#FFFFFF" d="M20.1,57.3h4.4v0.5h-3.8v2.3h3.6v0.5h-3.6v2.5h3.9v0.5h-4.5V57.3z"/>
	<path fill="#FFFFFF" d="M27.9,57.3h0.7l2.5,6.4h-0.7l-0.8-2h-2.9l-0.8,2h-0.6L27.9,57.3z M26.9,61.2h2.5l-1.2-3.3L26.9,61.2z"/>
	<path fill="#FFFFFF" d="M32.2,57.3h2.9c0.3,0,0.5,0,0.8,0.1c0.2,0.1,0.4,0.2,0.6,0.3c0.2,0.1,0.3,0.3,0.4,0.5
		c0.1,0.2,0.2,0.5,0.2,0.8c0,0.4-0.1,0.8-0.3,1.1c-0.2,0.3-0.5,0.5-0.9,0.6v0c0.2,0,0.4,0.1,0.5,0.2c0.1,0.1,0.3,0.2,0.3,0.3
		c0.1,0.1,0.2,0.3,0.2,0.4c0,0.2,0.1,0.3,0.1,0.5c0,0.1,0,0.2,0,0.4c0,0.2,0,0.3,0,0.5c0,0.2,0,0.3,0.1,0.5c0,0.1,0.1,0.3,0.2,0.3
		h-0.7c0-0.1-0.1-0.1-0.1-0.2s0-0.2,0-0.3c0-0.1,0-0.2,0-0.3s0-0.2,0-0.2c0-0.2,0-0.5-0.1-0.7c0-0.2-0.1-0.4-0.2-0.6
		c-0.1-0.2-0.2-0.3-0.4-0.4s-0.4-0.2-0.7-0.1h-2.3v2.9h-0.6V57.3z M32.8,60.3h2.3c0.2,0,0.4,0,0.5-0.1c0.2-0.1,0.3-0.1,0.4-0.2
		c0.1-0.1,0.2-0.2,0.3-0.4c0.1-0.2,0.1-0.3,0.1-0.5c0-0.4-0.1-0.7-0.3-0.9s-0.6-0.3-1-0.3h-2.3V60.3z"/>
	<path fill="#FFFFFF" d="M43.5,59.2c-0.1-0.2-0.1-0.5-0.3-0.7c-0.1-0.2-0.3-0.4-0.5-0.5s-0.4-0.2-0.6-0.3c-0.2-0.1-0.4-0.1-0.7-0.1
		c-0.4,0-0.8,0.1-1.1,0.2s-0.6,0.4-0.8,0.6c-0.2,0.3-0.3,0.6-0.4,0.9c-0.1,0.3-0.1,0.7-0.1,1c0,0.3,0,0.7,0.1,1
		c0.1,0.3,0.2,0.6,0.4,0.9c0.2,0.3,0.4,0.5,0.8,0.6c0.3,0.2,0.7,0.2,1.1,0.2c0.3,0,0.6-0.1,0.8-0.2c0.2-0.1,0.4-0.3,0.6-0.4
		c0.2-0.2,0.3-0.4,0.4-0.7c0.1-0.3,0.2-0.5,0.2-0.8h0.6c0,0.4-0.1,0.8-0.3,1.1s-0.3,0.6-0.6,0.8s-0.5,0.4-0.8,0.5
		c-0.3,0.1-0.7,0.2-1,0.2c-0.5,0-0.9-0.1-1.3-0.3c-0.4-0.2-0.7-0.4-1-0.7c-0.3-0.3-0.4-0.7-0.6-1.1c-0.1-0.4-0.2-0.8-0.2-1.3
		s0.1-0.9,0.2-1.3c0.1-0.4,0.3-0.8,0.6-1.1c0.3-0.3,0.6-0.6,1-0.7c0.4-0.2,0.8-0.3,1.3-0.3c0.3,0,0.6,0,0.9,0.1
		c0.3,0.1,0.6,0.2,0.8,0.4c0.2,0.2,0.4,0.4,0.6,0.7s0.3,0.6,0.3,0.9H43.5z"/>
	<path fill="#FFFFFF" d="M45.6,57.3h0.6V60h3.8v-2.8h0.6v6.4h-0.6v-3.1h-3.8v3.1h-0.6V57.3z"/>
	<path fill="#FFFFFF" d="M55.6,60.5c0-0.2,0-0.4,0.1-0.6s0.2-0.4,0.3-0.5c0.1-0.1,0.3-0.3,0.5-0.3s0.4-0.1,0.6-0.1
		c0.2,0,0.4,0,0.6,0.1c0.2,0.1,0.4,0.2,0.5,0.3c0.1,0.1,0.3,0.3,0.3,0.5c0.1,0.2,0.1,0.4,0.1,0.6s0,0.4-0.1,0.6
		c-0.1,0.2-0.2,0.4-0.3,0.5S58,61.9,57.8,62c-0.2,0.1-0.4,0.1-0.6,0.1c-0.2,0-0.4,0-0.6-0.1s-0.4-0.2-0.5-0.3s-0.3-0.3-0.3-0.5
		S55.6,60.7,55.6,60.5z"/>
	<path fill="#FFFFFF" d="M65.5,57.3h0.7l2.5,6.4h-0.7l-0.8-2h-2.9l-0.8,2h-0.6L65.5,57.3z M64.5,61.2h2.5l-1.2-3.3L64.5,61.2z"/>
	<path fill="#FFFFFF" d="M69.8,57.3h2.9c0.3,0,0.5,0,0.8,0.1c0.2,0.1,0.4,0.2,0.6,0.3c0.2,0.1,0.3,0.3,0.4,0.5
		c0.1,0.2,0.2,0.5,0.2,0.8c0,0.4-0.1,0.8-0.3,1.1c-0.2,0.3-0.5,0.5-0.9,0.6v0c0.2,0,0.4,0.1,0.5,0.2c0.1,0.1,0.3,0.2,0.3,0.3
		c0.1,0.1,0.2,0.3,0.2,0.4c0,0.2,0.1,0.3,0.1,0.5c0,0.1,0,0.2,0,0.4c0,0.2,0,0.3,0,0.5c0,0.2,0,0.3,0.1,0.5c0,0.1,0.1,0.3,0.2,0.3
		h-0.7c0-0.1-0.1-0.1-0.1-0.2c0-0.1,0-0.2,0-0.3c0-0.1,0-0.2,0-0.3s0-0.2,0-0.2c0-0.2,0-0.5-0.1-0.7c0-0.2-0.1-0.4-0.2-0.6
		c-0.1-0.2-0.2-0.3-0.4-0.4c-0.2-0.1-0.4-0.2-0.7-0.1h-2.3v2.9h-0.6V57.3z M70.5,60.3h2.3c0.2,0,0.4,0,0.5-0.1
		c0.2-0.1,0.3-0.1,0.4-0.2c0.1-0.1,0.2-0.2,0.3-0.4c0.1-0.2,0.1-0.3,0.1-0.5c0-0.4-0.1-0.7-0.3-0.9s-0.6-0.3-1-0.3h-2.3V60.3z"/>
	<path fill="#FFFFFF" d="M81.1,59.2c-0.1-0.2-0.1-0.5-0.3-0.7c-0.1-0.2-0.3-0.4-0.5-0.5c-0.2-0.1-0.4-0.2-0.6-0.3
		c-0.2-0.1-0.4-0.1-0.7-0.1c-0.4,0-0.8,0.1-1.1,0.2s-0.6,0.4-0.8,0.6c-0.2,0.3-0.3,0.6-0.4,0.9c-0.1,0.3-0.1,0.7-0.1,1
		c0,0.3,0,0.7,0.1,1c0.1,0.3,0.2,0.6,0.4,0.9c0.2,0.3,0.4,0.5,0.8,0.6c0.3,0.2,0.7,0.2,1.1,0.2c0.3,0,0.6-0.1,0.8-0.2
		c0.2-0.1,0.4-0.3,0.6-0.4s0.3-0.4,0.4-0.7c0.1-0.3,0.2-0.5,0.2-0.8h0.6c0,0.4-0.1,0.8-0.3,1.1c-0.1,0.3-0.3,0.6-0.6,0.8
		s-0.5,0.4-0.8,0.5c-0.3,0.1-0.7,0.2-1,0.2c-0.5,0-0.9-0.1-1.3-0.3c-0.4-0.2-0.7-0.4-1-0.7c-0.3-0.3-0.4-0.7-0.6-1.1
		c-0.1-0.4-0.2-0.8-0.2-1.3s0.1-0.9,0.2-1.3c0.1-0.4,0.3-0.8,0.6-1.1c0.3-0.3,0.6-0.6,1-0.7c0.4-0.2,0.8-0.3,1.3-0.3
		c0.3,0,0.6,0,0.9,0.1s0.6,0.2,0.8,0.4s0.4,0.4,0.6,0.7c0.2,0.3,0.3,0.6,0.3,0.9H81.1z"/>
	<path fill="#FFFFFF" d="M83.3,57.3h0.6V60h3.8v-2.8h0.6v6.4h-0.6v-3.1h-3.8v3.1h-0.6V57.3z"/>
	<path fill="#FFFFFF" d="M90.2,57.3h0.6v6.4h-0.6V57.3z"/>
	<path fill="#FFFFFF" d="M92,57.3h0.6l2.1,5.8h0l2.1-5.8h0.6l-2.4,6.4h-0.7L92,57.3z"/>
	<path fill="#FFFFFF" d="M98.6,57.3h4.4v0.5h-3.8v2.3h3.6v0.5h-3.6v2.5h3.9v0.5h-4.5V57.3z"/>
</g>
</svg>
