<?xml version="1.0" encoding="utf-8"?>
<!-- Generator: Adobe Illustrator 18.1.0, SVG Export Plug-In . SVG Version: 6.00 Build 0)  -->
<svg version="1.1" id="Layer_1" xmlns="http://www.w3.org/2000/svg" xmlns:xlink="http://www.w3.org/1999/xlink" x="0px" y="0px"
	 width="44.7px" height="29.4px" viewBox="0 0 44.7 29.4" enable-background="new 0 0 44.7 29.4" xml:space="preserve">
<path fill-rule="evenodd" clip-rule="evenodd" fill="#729BAB" d="M6.4,0c12.4,0,19.5,0,31.8,0c2.1,0,3.2,1.8,3.8,3.8l2,6.1
	c0.4,1.2,0.6,2.2,0.6,3.4c0,3.4,0,4.4,0,12.2c0,2.1-1.7,3.8-3.8,3.8c-12.4,0-24.7,0-37.1,0c-2.1,0-3.8-1.7-3.8-3.8
	c0-7.1,0-9.1,0-12.2c0-1.2,0.2-2.3,0.6-3.4l2-6.1C3.3,1.8,4.3,0,6.4,0L6.4,0z M17.1,26.4v-7H19v7h21.5c0.7,0,1.3-0.6,1.3-1.3V13.7
	c0-0.7-0.6-1.3-1.3-1.3H4.2C3.5,12.4,3,13,3,13.7v11.5c0,0.7,0.6,1.3,1.3,1.3h1.9v-7h1.9v7h1.7v-7h1.9v7h1.7v-7h1.9v7H17.1
	L17.1,26.4z M35.3,19.4c0,1.4,1.1,2.5,2.5,2.5c1.4,0,2.5-1.1,2.5-2.5c0-1.4-1.1-2.5-2.5-2.5C36.4,16.9,35.3,18.1,35.3,19.4z"/>
</svg>
