<?xml version="1.0" encoding="utf-8"?>
<!-- Generator: Adobe Illustrator 18.1.0, SVG Export Plug-In . SVG Version: 6.00 Build 0)  -->
<svg version="1.1" id="Layer_1" xmlns="http://www.w3.org/2000/svg" xmlns:xlink="http://www.w3.org/1999/xlink" x="0px" y="0px"
	 width="28px" height="28px" viewBox="0 0 28 28" enable-background="new 0 0 28 28" xml:space="preserve">
<g>
	<circle fill="#7A9C49" cx="14.2" cy="17.5" r="1.6"/>
	<path fill="#7A9C49" d="M19.4,14.5v-4.4c0-2.8-2.3-5-5.1-5c-2.8,0-5.1,2-5.1,5h2.1c0-2,1.4-2.9,3-2.9s3,1.3,3,2.9v2.3
		c-2-0.5-2-0.8-3-0.8c-3.2,0-5.9,2.6-5.9,5.9s2.6,5.9,5.8,5.9c3.2,0,5.9-2.6,5.9-5.9C20.2,16.4,20.4,15.4,19.4,14.5z M14.2,21.3
		c-2.1,0-3.7-1.7-3.7-3.7s1.7-3.7,3.7-3.7s3.7,1.7,3.7,3.7S16.3,21.3,14.2,21.3z"/>
</g>
</svg>
