<?xml version="1.0" encoding="utf-8"?>
<!-- Generator: Adobe Illustrator 18.1.0, SVG Export Plug-In . SVG Version: 6.00 Build 0)  -->
<svg version="1.1" id="Layer_1" xmlns="http://www.w3.org/2000/svg" xmlns:xlink="http://www.w3.org/1999/xlink" x="0px" y="0px"
	 width="36.9px" height="57.8px" viewBox="0 0 36.9 57.8" enable-background="new 0 0 36.9 57.8" xml:space="preserve">
<g>
	<circle fill="#7A9C49" cx="18.5" cy="39.2" r="5.1"/>
	<g>
		<path fill="none" d="M18.5,27.3c-6.5,0-11.9,5.3-11.9,11.9S12,51,18.5,51s11.9-5.3,11.9-11.9S25,27.3,18.5,27.3z"/>
		<path fill="#7A9C49" d="M34,29.5V15.6C34,6.9,27,0,18.3,0S2.6,7.1,2.6,16.1h6.7c0-5,4.3-9.4,9.3-9.4s9.3,3.8,9.3,8.9V23
			c-3-1.5-6-2.4-9.3-2.4C8.4,20.6,0,28.9,0,39.2s8.3,18.6,18.5,18.6s18.4-8.3,18.4-18.6C36.9,35.6,36,32.3,34,29.5z M18.5,51
			C12,51,6.6,45.7,6.6,39.2S12,27.3,18.5,27.3s11.9,5.3,11.9,11.9S25,51,18.5,51z"/>
	</g>
</g>
</svg>
