<?xml version="1.0" encoding="utf-8"?>
<!-- Generator: Adobe Illustrator 18.1.0, SVG Export Plug-In . SVG Version: 6.00 Build 0)  -->
<svg version="1.1" id="Layer_1" xmlns="http://www.w3.org/2000/svg" xmlns:xlink="http://www.w3.org/1999/xlink" x="0px" y="0px"
	 width="19.5px" height="11px" viewBox="0 0 19.5 11" enable-background="new 0 0 19.5 11" xml:space="preserve">
<g>
	<path fill="#FFFFFF" d="M9.7,11C8,11,6.4,10.5,4.9,9.7c-1.6-0.9-3.1-2-4.4-3.4C0.4,6.2,0.3,6.2,0.3,6.1c-0.3-0.4-0.4-0.8,0-1.2
		C0.9,4.3,1.6,3.6,2.3,3C3.7,1.9,5.2,1,7,0.4c2.2-0.7,4.4-0.6,6.6,0.4c2.2,1,4.1,2.4,5.7,4.2c0.3,0.3,0.3,0.7,0,1
		c-1.7,1.9-3.7,3.4-6.1,4.4C12.1,10.8,10.9,11,9.7,11z M9.8,9.3c2.1,0,3.8-1.7,3.8-3.8c0-2.1-1.7-3.8-3.8-3.8C7.7,1.8,6,3.5,6,5.5
		C6,7.6,7.7,9.3,9.8,9.3z"/>
	<path fill="#FFFFFF" d="M9.8,4.3c0.7,0,1.2,0.5,1.2,1.2c0,0.7-0.5,1.3-1.2,1.3c-0.7,0-1.2-0.5-1.2-1.2C8.5,4.8,9.1,4.3,9.8,4.3z"/>
</g>
</svg>
