<?xml version="1.0" encoding="utf-8"?>
<!-- Generator: Adobe Illustrator 18.1.0, SVG Export Plug-In . SVG Version: 6.00 Build 0)  -->
<svg version="1.1" id="Layer_1" xmlns="http://www.w3.org/2000/svg" xmlns:xlink="http://www.w3.org/1999/xlink" x="0px" y="0px"
	 width="27.2px" height="16.4px" viewBox="0 0 27.2 16.4" enable-background="new 0 0 27.2 16.4" xml:space="preserve">
<g>
	<path fill="#729BAB" d="M11.7,8.2c1,0.1,1.8-0.6,1.9-1.6c0.1-0.8-0.4-1.6-1.2-1.8c0.4-0.1,0.7-0.2,1.1-0.2c2,0,3.6,1.6,3.6,3.6
		s-1.6,3.6-3.6,3.6c-2,0-3.6-1.6-3.6-3.6c0-0.5,0.1-0.9,0.2-1.3C10.4,7.6,11,8.1,11.7,8.2z"/>
	<path fill="#729BAB" d="M0.3,8.9c0.2,0.3,6,7.5,13.3,7.5c7.3,0,13.1-7.2,13.3-7.5c0.3-0.4,0.3-1,0-1.5C26.7,7.2,20.9,0,13.6,0
		C6.2,0,0.5,7.2,0.3,7.5C-0.1,7.9-0.1,8.5,0.3,8.9z M8,8.2c0-3.1,2.5-5.5,5.5-5.5c3.1,0,5.5,2.5,5.5,5.5s-2.5,5.5-5.5,5.5
		C10.5,13.7,8,11.2,8,8.2z M20.8,11.4c0.4-1,0.7-2.1,0.7-3.2c0-1.1-0.2-2.2-0.7-3.2c1.7,1.2,2.9,2.4,3.7,3.2
		C23.7,9,22.4,10.2,20.8,11.4z M2.7,8.2c0.7-0.8,2-2.1,3.7-3.2C5.9,6,5.7,7,5.7,8.2c0,1.1,0.2,2.2,0.7,3.2C4.7,10.3,3.4,9,2.7,8.2z"
		/>
</g>
</svg>
