<?xml version="1.0" encoding="utf-8"?>
<!-- Generator: Adobe Illustrator 18.1.0, SVG Export Plug-In . SVG Version: 6.00 Build 0)  -->
<svg version="1.1" id="Layer_1" xmlns="http://www.w3.org/2000/svg" xmlns:xlink="http://www.w3.org/1999/xlink" x="0px" y="0px"
	 width="39.5px" height="37.8px" viewBox="0 0 39.5 37.8" enable-background="new 0 0 39.5 37.8" xml:space="preserve">
<g>
	<path fill="#50748A" d="M39.5,14.3c-0.2-0.5-0.6-0.9-1.2-1l-11.9-1.7L21.1,0.8C20.8,0.3,20.3,0,19.8,0c-0.5,0-1,0.3-1.3,0.8
		l-5.3,10.8L1.2,13.3c-0.5,0.1-1,0.5-1.2,1c-0.2,0.5,0,1.1,0.4,1.5l6,5.8l3-0.4l-5.9-5.7l11.2-1.6l5-10.1l5,10.1L36,15.5l-8.1,7.9
		l1.9,11.1l-7.2-3.8l0.5,3l7.4,3.9c0.5,0.3,1.1,0.2,1.5-0.1c0.4-0.3,0.7-0.9,0.6-1.4l-2-11.9l8.6-8.4C39.5,15.4,39.6,14.8,39.5,14.3
		z"/>
	<path fill="#729BAB" d="M18.6,22.4l7,1c0.3,0,0.6,0.3,0.7,0.6c0.1,0.3,0,0.6-0.2,0.9L21,29.8l1.2,7c0.1,0.3-0.1,0.6-0.3,0.8
		c-0.3,0.2-0.6,0.2-0.9,0.1l-6.3-3.3l-6.3,3.3c-0.3,0.1-0.6,0.1-0.9-0.1c-0.3-0.2-0.4-0.5-0.3-0.8l1.2-7l-5.1-4.9
		C3.1,24.7,3,24.3,3.1,24c0.1-0.3,0.4-0.5,0.7-0.6l7-1l3.1-6.3c0.1-0.3,0.4-0.5,0.8-0.5c0.3,0,0.6,0.2,0.8,0.5L18.6,22.4z"/>
</g>
</svg>
